<mxfile host="app.diagrams.net" modified="2021-02-26T09:19:31.422Z" agent="5.0 (Macintosh; Intel Mac OS X 10_15_7) AppleWebKit/537.36 (KHTML, like Gecko) Chrome/88.0.4324.96 Safari/537.36" etag="K-kD8m2ipqwSeqwXLdzC" version="14.4.3" type="github">
  <diagram id="eVsVK6MXpdVOv8O7540l" name="Page-1">
    <mxGraphModel dx="983" dy="492" grid="1" gridSize="10" guides="1" tooltips="1" connect="1" arrows="1" fold="1" page="1" pageScale="1" pageWidth="827" pageHeight="1169" math="0" shadow="0">
      <root>
        <mxCell id="0" />
        <mxCell id="1" parent="0" />
        <mxCell id="5GNC8V3O8vAYi4N-6kPA-76" value="" style="rounded=0;whiteSpace=wrap;html=1;shadow=1;fillColor=#fff2cc;strokeColor=#d6b656;" vertex="1" parent="1">
          <mxGeometry x="120" y="740" width="320" height="210" as="geometry" />
        </mxCell>
        <mxCell id="5GNC8V3O8vAYi4N-6kPA-80" style="edgeStyle=orthogonalEdgeStyle;rounded=0;orthogonalLoop=1;jettySize=auto;html=1;exitX=0.5;exitY=1;exitDx=0;exitDy=0;fillColor=#CCE5FF;entryX=0.5;entryY=0;entryDx=0;entryDy=0;" edge="1" parent="1" source="5GNC8V3O8vAYi4N-6kPA-75" target="5GNC8V3O8vAYi4N-6kPA-78">
          <mxGeometry relative="1" as="geometry">
            <mxPoint x="274.9310344827586" y="900" as="targetPoint" />
          </mxGeometry>
        </mxCell>
        <mxCell id="5GNC8V3O8vAYi4N-6kPA-75" value="CenterBody" style="rounded=0;whiteSpace=wrap;html=1;shadow=1;" vertex="1" parent="1">
          <mxGeometry x="210" y="780" width="130" height="90" as="geometry" />
        </mxCell>
        <mxCell id="5GNC8V3O8vAYi4N-6kPA-74" value="&lt;span style=&quot;font-size: 11px&quot;&gt;CenterHeader&lt;/span&gt;" style="rounded=0;whiteSpace=wrap;html=1;shadow=0;" vertex="1" parent="1">
          <mxGeometry x="210" y="750" width="130" height="30" as="geometry" />
        </mxCell>
        <mxCell id="5GNC8V3O8vAYi4N-6kPA-71" value="&lt;span style=&quot;font-size: 11px&quot;&gt;FixedLeftHeader&lt;/span&gt;" style="rounded=0;whiteSpace=wrap;html=1;shadow=1;fillColor=#dae8fc;strokeColor=#6c8ebf;" vertex="1" parent="1">
          <mxGeometry x="130" y="750" width="100" height="30" as="geometry" />
        </mxCell>
        <mxCell id="5GNC8V3O8vAYi4N-6kPA-2" value="" style="whiteSpace=wrap;html=1;aspect=fixed;" vertex="1" parent="1">
          <mxGeometry x="40" y="120" width="240" height="240" as="geometry" />
        </mxCell>
        <mxCell id="5GNC8V3O8vAYi4N-6kPA-3" value="Customed Feature &amp;amp; Style" style="rounded=0;whiteSpace=wrap;html=1;" vertex="1" parent="1">
          <mxGeometry x="50" y="130" width="220" height="50" as="geometry" />
        </mxCell>
        <mxCell id="5GNC8V3O8vAYi4N-6kPA-4" value="rc-table (fork)" style="rounded=0;whiteSpace=wrap;html=1;" vertex="1" parent="1">
          <mxGeometry x="50" y="300" width="220" height="50" as="geometry" />
        </mxCell>
        <mxCell id="5GNC8V3O8vAYi4N-6kPA-5" value="allData.slice(index,index+length)" style="rounded=0;whiteSpace=wrap;html=1;" vertex="1" parent="1">
          <mxGeometry x="50" y="215" width="220" height="50" as="geometry" />
        </mxCell>
        <mxCell id="5GNC8V3O8vAYi4N-6kPA-6" value="" style="endArrow=classic;html=1;" edge="1" parent="1">
          <mxGeometry width="50" height="50" relative="1" as="geometry">
            <mxPoint x="90" y="180" as="sourcePoint" />
            <mxPoint x="90" y="215" as="targetPoint" />
          </mxGeometry>
        </mxCell>
        <mxCell id="5GNC8V3O8vAYi4N-6kPA-7" value="" style="endArrow=classic;html=1;" edge="1" parent="1">
          <mxGeometry width="50" height="50" relative="1" as="geometry">
            <mxPoint x="90" y="265" as="sourcePoint" />
            <mxPoint x="90" y="300" as="targetPoint" />
          </mxGeometry>
        </mxCell>
        <mxCell id="5GNC8V3O8vAYi4N-6kPA-8" value="&lt;span style=&quot;color: rgb(0 , 0 , 0) ; font-family: &amp;#34;helvetica&amp;#34; ; font-size: 12px ; font-style: normal ; font-weight: 400 ; letter-spacing: normal ; text-align: center ; text-indent: 0px ; text-transform: none ; word-spacing: 0px ; background-color: rgb(248 , 249 , 250) ; display: inline ; float: none&quot;&gt;allData&lt;/span&gt;" style="text;whiteSpace=wrap;html=1;" vertex="1" parent="1">
          <mxGeometry x="90" y="185" width="170" height="30" as="geometry" />
        </mxCell>
        <mxCell id="5GNC8V3O8vAYi4N-6kPA-9" value="&lt;div style=&quot;text-align: center&quot;&gt;&lt;span&gt;&lt;font face=&quot;helvetica&quot;&gt;index&lt;/font&gt;&lt;/span&gt;&lt;/div&gt;" style="text;whiteSpace=wrap;html=1;" vertex="1" parent="1">
          <mxGeometry x="220" y="270" width="50" height="30" as="geometry" />
        </mxCell>
        <mxCell id="5GNC8V3O8vAYi4N-6kPA-10" value="" style="endArrow=classic;html=1;" edge="1" parent="1">
          <mxGeometry width="50" height="50" relative="1" as="geometry">
            <mxPoint x="210" y="300" as="sourcePoint" />
            <mxPoint x="210" y="270" as="targetPoint" />
          </mxGeometry>
        </mxCell>
        <mxCell id="5GNC8V3O8vAYi4N-6kPA-11" value="&lt;span style=&quot;color: rgb(0 , 0 , 0) ; font-family: &amp;#34;helvetica&amp;#34; ; font-size: 12px ; font-style: normal ; font-weight: 400 ; letter-spacing: normal ; text-align: center ; text-indent: 0px ; text-transform: none ; word-spacing: 0px ; background-color: rgb(248 , 249 , 250) ; display: inline ; float: none&quot;&gt;sliceData&lt;/span&gt;" style="text;whiteSpace=wrap;html=1;" vertex="1" parent="1">
          <mxGeometry x="90" y="265" width="60" height="30" as="geometry" />
        </mxCell>
        <mxCell id="5GNC8V3O8vAYi4N-6kPA-28" value="" style="edgeStyle=orthogonalEdgeStyle;rounded=0;orthogonalLoop=1;jettySize=auto;html=1;entryX=0.5;entryY=0;entryDx=0;entryDy=0;" edge="1" parent="1" target="5GNC8V3O8vAYi4N-6kPA-31">
          <mxGeometry relative="1" as="geometry">
            <mxPoint x="406.51724137931046" y="100" as="sourcePoint" />
            <mxPoint x="407" y="130" as="targetPoint" />
          </mxGeometry>
        </mxCell>
        <mxCell id="5GNC8V3O8vAYi4N-6kPA-35" value="" style="edgeStyle=orthogonalEdgeStyle;rounded=0;orthogonalLoop=1;jettySize=auto;html=1;" edge="1" parent="1" source="5GNC8V3O8vAYi4N-6kPA-31">
          <mxGeometry relative="1" as="geometry">
            <mxPoint x="406.51724137931046" y="210" as="targetPoint" />
          </mxGeometry>
        </mxCell>
        <mxCell id="5GNC8V3O8vAYi4N-6kPA-50" style="edgeStyle=orthogonalEdgeStyle;rounded=0;orthogonalLoop=1;jettySize=auto;html=1;exitX=1;exitY=0.5;exitDx=0;exitDy=0;entryX=0;entryY=0.5;entryDx=0;entryDy=0;fillColor=#CCE5FF;" edge="1" parent="1" source="5GNC8V3O8vAYi4N-6kPA-31" target="5GNC8V3O8vAYi4N-6kPA-36">
          <mxGeometry relative="1" as="geometry" />
        </mxCell>
        <mxCell id="5GNC8V3O8vAYi4N-6kPA-31" value="&lt;font style=&quot;font-size: 11px&quot;&gt;绑定新的scroll事件处理&lt;/font&gt;" style="rounded=0;whiteSpace=wrap;html=1;shadow=1;" vertex="1" parent="1">
          <mxGeometry x="334.75" y="150" width="143.5" height="40" as="geometry" />
        </mxCell>
        <mxCell id="5GNC8V3O8vAYi4N-6kPA-39" value="" style="edgeStyle=orthogonalEdgeStyle;rounded=0;orthogonalLoop=1;jettySize=auto;html=1;" edge="1" parent="1" target="5GNC8V3O8vAYi4N-6kPA-38">
          <mxGeometry relative="1" as="geometry">
            <mxPoint x="406.51724137931046" y="250.0000000000001" as="sourcePoint" />
          </mxGeometry>
        </mxCell>
        <mxCell id="5GNC8V3O8vAYi4N-6kPA-52" style="edgeStyle=orthogonalEdgeStyle;rounded=0;orthogonalLoop=1;jettySize=auto;html=1;exitX=0.5;exitY=1;exitDx=0;exitDy=0;entryX=1;entryY=0.5;entryDx=0;entryDy=0;fillColor=#CCE5FF;" edge="1" parent="1" source="5GNC8V3O8vAYi4N-6kPA-36" target="5GNC8V3O8vAYi4N-6kPA-49">
          <mxGeometry relative="1" as="geometry" />
        </mxCell>
        <mxCell id="5GNC8V3O8vAYi4N-6kPA-36" value="&lt;span style=&quot;font-size: 11px&quot;&gt;更新裁切数据&lt;/span&gt;" style="rounded=0;whiteSpace=wrap;html=1;shadow=1;" vertex="1" parent="1">
          <mxGeometry x="540" y="150" width="143.5" height="40" as="geometry" />
        </mxCell>
        <mxCell id="5GNC8V3O8vAYi4N-6kPA-41" value="" style="edgeStyle=orthogonalEdgeStyle;rounded=0;orthogonalLoop=1;jettySize=auto;html=1;" edge="1" parent="1" source="5GNC8V3O8vAYi4N-6kPA-38" target="5GNC8V3O8vAYi4N-6kPA-40">
          <mxGeometry relative="1" as="geometry" />
        </mxCell>
        <mxCell id="5GNC8V3O8vAYi4N-6kPA-38" value="&lt;span style=&quot;font-size: 11px&quot;&gt;创建上下占位符&lt;/span&gt;" style="rounded=0;whiteSpace=wrap;html=1;shadow=1;" vertex="1" parent="1">
          <mxGeometry x="334.75" y="270" width="143.5" height="40" as="geometry" />
        </mxCell>
        <mxCell id="5GNC8V3O8vAYi4N-6kPA-40" value="结束" style="rounded=1;whiteSpace=wrap;html=1;shadow=1;" vertex="1" parent="1">
          <mxGeometry x="346.5" y="340" width="120" height="40" as="geometry" />
        </mxCell>
        <mxCell id="5GNC8V3O8vAYi4N-6kPA-43" value="antD/table&amp;nbsp;&lt;br&gt;&lt;span style=&quot;font-family: &amp;#34;helvetica&amp;#34;&quot;&gt;componentDidMount&lt;/span&gt;" style="rounded=1;whiteSpace=wrap;html=1;shadow=1;" vertex="1" parent="1">
          <mxGeometry x="341.5" y="70" width="130" height="50" as="geometry" />
        </mxCell>
        <mxCell id="5GNC8V3O8vAYi4N-6kPA-49" value="表格功能兼容" style="rounded=0;whiteSpace=wrap;html=1;shadow=1;" vertex="1" parent="1">
          <mxGeometry x="331.5" y="212.5" width="150" height="37.5" as="geometry" />
        </mxCell>
        <mxCell id="5GNC8V3O8vAYi4N-6kPA-51" value="onScroll" style="text;html=1;strokeColor=none;fillColor=none;align=center;verticalAlign=middle;whiteSpace=wrap;rounded=0;shadow=1;" vertex="1" parent="1">
          <mxGeometry x="490" y="150" width="40" height="20" as="geometry" />
        </mxCell>
        <mxCell id="5GNC8V3O8vAYi4N-6kPA-66" style="edgeStyle=orthogonalEdgeStyle;rounded=0;orthogonalLoop=1;jettySize=auto;html=1;exitX=1;exitY=0.5;exitDx=0;exitDy=0;entryX=0;entryY=0.5;entryDx=0;entryDy=0;fillColor=#CCE5FF;" edge="1" parent="1" source="5GNC8V3O8vAYi4N-6kPA-53" target="5GNC8V3O8vAYi4N-6kPA-54">
          <mxGeometry relative="1" as="geometry" />
        </mxCell>
        <mxCell id="5GNC8V3O8vAYi4N-6kPA-53" value="props&lt;br&gt;转化" style="rounded=0;whiteSpace=wrap;html=1;shadow=1;" vertex="1" parent="1">
          <mxGeometry x="70" y="520" width="50" height="110" as="geometry" />
        </mxCell>
        <mxCell id="5GNC8V3O8vAYi4N-6kPA-57" value="" style="edgeStyle=orthogonalEdgeStyle;rounded=0;orthogonalLoop=1;jettySize=auto;html=1;fillColor=#CCE5FF;" edge="1" parent="1" source="5GNC8V3O8vAYi4N-6kPA-54" target="5GNC8V3O8vAYi4N-6kPA-56">
          <mxGeometry relative="1" as="geometry" />
        </mxCell>
        <mxCell id="5GNC8V3O8vAYi4N-6kPA-61" style="edgeStyle=orthogonalEdgeStyle;rounded=0;orthogonalLoop=1;jettySize=auto;html=1;exitX=1;exitY=0.5;exitDx=0;exitDy=0;fillColor=#CCE5FF;" edge="1" parent="1" source="5GNC8V3O8vAYi4N-6kPA-54" target="5GNC8V3O8vAYi4N-6kPA-58">
          <mxGeometry relative="1" as="geometry" />
        </mxCell>
        <mxCell id="5GNC8V3O8vAYi4N-6kPA-62" style="edgeStyle=orthogonalEdgeStyle;rounded=0;orthogonalLoop=1;jettySize=auto;html=1;exitX=1;exitY=0.5;exitDx=0;exitDy=0;entryX=0;entryY=0.5;entryDx=0;entryDy=0;fillColor=#CCE5FF;" edge="1" parent="1" source="5GNC8V3O8vAYi4N-6kPA-54" target="5GNC8V3O8vAYi4N-6kPA-59">
          <mxGeometry relative="1" as="geometry" />
        </mxCell>
        <mxCell id="5GNC8V3O8vAYi4N-6kPA-54" value="&lt;span style=&quot;font-size: 11px&quot;&gt;react-table&lt;/span&gt;" style="rounded=0;whiteSpace=wrap;html=1;shadow=1;" vertex="1" parent="1">
          <mxGeometry x="140" y="520" width="90" height="110" as="geometry" />
        </mxCell>
        <mxCell id="5GNC8V3O8vAYi4N-6kPA-56" value="&lt;span style=&quot;font-size: 11px&quot;&gt;useSortBy&lt;/span&gt;" style="rounded=0;whiteSpace=wrap;html=1;shadow=1;" vertex="1" parent="1">
          <mxGeometry x="280" y="520" width="143.5" height="30" as="geometry" />
        </mxCell>
        <mxCell id="5GNC8V3O8vAYi4N-6kPA-58" value="&lt;span style=&quot;font-size: 11px&quot;&gt;useSelection&lt;/span&gt;" style="rounded=0;whiteSpace=wrap;html=1;shadow=1;" vertex="1" parent="1">
          <mxGeometry x="280" y="560" width="143.5" height="30" as="geometry" />
        </mxCell>
        <mxCell id="5GNC8V3O8vAYi4N-6kPA-59" value="&lt;span style=&quot;font-size: 11px&quot;&gt;useExpanded&lt;/span&gt;" style="rounded=0;whiteSpace=wrap;html=1;shadow=1;" vertex="1" parent="1">
          <mxGeometry x="280" y="600" width="143.5" height="30" as="geometry" />
        </mxCell>
        <mxCell id="5GNC8V3O8vAYi4N-6kPA-63" value="getHeaderProps" style="rounded=0;whiteSpace=wrap;html=1;shadow=1;" vertex="1" parent="1">
          <mxGeometry x="600" y="520" width="150" height="30" as="geometry" />
        </mxCell>
        <mxCell id="5GNC8V3O8vAYi4N-6kPA-64" value="getBodyProps" style="rounded=0;whiteSpace=wrap;html=1;shadow=1;" vertex="1" parent="1">
          <mxGeometry x="600" y="550" width="150" height="80" as="geometry" />
        </mxCell>
        <mxCell id="5GNC8V3O8vAYi4N-6kPA-65" value="" style="shape=flexArrow;endArrow=classic;html=1;fillColor=#CCE5FF;" edge="1" parent="1">
          <mxGeometry width="50" height="50" relative="1" as="geometry">
            <mxPoint x="431.5" y="574.66" as="sourcePoint" />
            <mxPoint x="461.5" y="574.66" as="targetPoint" />
          </mxGeometry>
        </mxCell>
        <mxCell id="5GNC8V3O8vAYi4N-6kPA-67" value="react-window" style="rounded=0;whiteSpace=wrap;html=1;shadow=1;" vertex="1" parent="1">
          <mxGeometry x="466.5" y="520" width="83.5" height="110" as="geometry" />
        </mxCell>
        <mxCell id="5GNC8V3O8vAYi4N-6kPA-69" value="" style="shape=flexArrow;endArrow=classic;html=1;fillColor=#CCE5FF;" edge="1" parent="1">
          <mxGeometry width="50" height="50" relative="1" as="geometry">
            <mxPoint x="560" y="574.6599999999999" as="sourcePoint" />
            <mxPoint x="590" y="574.6599999999999" as="targetPoint" />
          </mxGeometry>
        </mxCell>
        <mxCell id="5GNC8V3O8vAYi4N-6kPA-79" style="edgeStyle=orthogonalEdgeStyle;rounded=0;orthogonalLoop=1;jettySize=auto;html=1;exitX=0.5;exitY=1;exitDx=0;exitDy=0;fillColor=#CCE5FF;" edge="1" parent="1" source="5GNC8V3O8vAYi4N-6kPA-70" target="5GNC8V3O8vAYi4N-6kPA-78">
          <mxGeometry relative="1" as="geometry" />
        </mxCell>
        <mxCell id="5GNC8V3O8vAYi4N-6kPA-70" value="FixedLeftBody" style="rounded=0;whiteSpace=wrap;html=1;shadow=1;fillColor=#dae8fc;strokeColor=#6c8ebf;" vertex="1" parent="1">
          <mxGeometry x="130" y="780" width="100" height="90" as="geometry" />
        </mxCell>
        <mxCell id="5GNC8V3O8vAYi4N-6kPA-72" value="&lt;span style=&quot;font-size: 11px&quot;&gt;FixedRightHeader&lt;/span&gt;" style="rounded=0;whiteSpace=wrap;html=1;shadow=1;fillColor=#d5e8d4;strokeColor=#82b366;" vertex="1" parent="1">
          <mxGeometry x="331.5" y="750" width="100" height="30" as="geometry" />
        </mxCell>
        <mxCell id="5GNC8V3O8vAYi4N-6kPA-81" style="edgeStyle=orthogonalEdgeStyle;rounded=0;orthogonalLoop=1;jettySize=auto;html=1;exitX=0.5;exitY=1;exitDx=0;exitDy=0;entryX=0.5;entryY=0;entryDx=0;entryDy=0;fillColor=#CCE5FF;" edge="1" parent="1" source="5GNC8V3O8vAYi4N-6kPA-73" target="5GNC8V3O8vAYi4N-6kPA-78">
          <mxGeometry relative="1" as="geometry" />
        </mxCell>
        <mxCell id="5GNC8V3O8vAYi4N-6kPA-73" value="FixedRightBody" style="rounded=0;whiteSpace=wrap;html=1;shadow=1;fillColor=#d5e8d4;strokeColor=#82b366;" vertex="1" parent="1">
          <mxGeometry x="331.5" y="780" width="100" height="90" as="geometry" />
        </mxCell>
        <mxCell id="5GNC8V3O8vAYi4N-6kPA-78" value="state: scrollTop" style="text;html=1;strokeColor=none;fillColor=none;align=center;verticalAlign=middle;whiteSpace=wrap;rounded=0;shadow=1;" vertex="1" parent="1">
          <mxGeometry x="205" y="920" width="140" height="20" as="geometry" />
        </mxCell>
        <mxCell id="5GNC8V3O8vAYi4N-6kPA-82" value="onscroll" style="text;html=1;strokeColor=none;fillColor=none;align=center;verticalAlign=middle;whiteSpace=wrap;rounded=0;shadow=1;" vertex="1" parent="1">
          <mxGeometry x="230" y="890" width="140" height="20" as="geometry" />
        </mxCell>
      </root>
    </mxGraphModel>
  </diagram>
</mxfile>
